<svg width="76" height="76" viewBox="0 0 76 76" fill="none" xmlns="http://www.w3.org/2000/svg">
<rect width="76" height="76" rx="38" fill="#4552C8"/>
<path fill-rule="evenodd" clip-rule="evenodd" d="M36.7328 38.3862C36.7328 45.7683 30.7484 51.7526 23.3664 51.7526C20.1834 51.7526 17.2603 50.64 14.9647 48.7825L14.9647 59.7724L10 52.2191L10 38.3862C10 31.0042 15.9843 25.0198 23.3664 25.0198C30.7484 25.0198 36.7328 31.0042 36.7328 38.3862ZM31.3862 38.3862C31.3862 42.8154 27.7956 46.406 23.3664 46.406C18.9372 46.406 15.3466 42.8154 15.3466 38.3862C15.3466 33.957 18.9372 30.3664 23.3664 30.3664C27.7956 30.3664 31.3862 33.957 31.3862 38.3862Z" fill="white"/>
<circle cx="23.1754" cy="38.1953" r="2.86422" fill="white"/>
<path fill-rule="evenodd" clip-rule="evenodd" d="M38.6422 38.3862C38.6422 31.0042 44.6266 25.0198 52.0086 25.0198C55.1916 25.0198 58.1147 26.1324 60.4103 27.9899L60.4103 17L65.375 24.5533V38.3862L65.375 38.3862C65.375 45.7683 59.3907 51.7526 52.0086 51.7526C44.6266 51.7526 38.6422 45.7683 38.6422 38.3862ZM43.9888 38.3862C43.9888 33.957 47.5794 30.3664 52.0086 30.3664C56.4378 30.3664 60.0284 33.957 60.0284 38.3862C60.0284 42.8154 56.4378 46.406 52.0086 46.406C47.5794 46.406 43.9888 42.8154 43.9888 38.3862Z" fill="white"/>
<circle cx="52.1996" cy="38.5772" r="2.86422" transform="rotate(180 52.1996 38.5772)" fill="white"/>
</svg>
